<svg class="svg-icon" style="width: 1.8em; height: 1.8em;vertical-align: middle;fill: #6c757dff;overflow: hidden;" viewBox="0 0 1024 1024" version="1.1" xmlns="http://www.w3.org/2000/svg"><path d="M938.666667 512a426.666667 426.666667 0 0 1-426.666667 426.666667A426.666667 426.666667 0 0 1 85.333333 512V192A106.666667 106.666667 0 0 1 192 85.333333h640A106.666667 106.666667 0 0 1 938.666667 192V512m-261.12-160L512 517.546667 346.453333 351.573333a63.573333 63.573333 0 0 0-90.453333 0 63.573333 63.573333 0 0 0 0 90.453334l210.346667 211.626666c24.32 24.746667 65.706667 24.746667 90.88 0L768 442.453333c25.173333-25.173333 25.173333-65.706667 0-90.453333a63.573333 63.573333 0 0 0-90.453333 0z" fill="" /></svg>